G04 #@! TF.GenerationSoftware,KiCad,Pcbnew,5.99.0-1.20210607git4c293e0.fc34*
G04 #@! TF.CreationDate,2021-06-10T07:48:19+01:00*
G04 #@! TF.ProjectId,A500-2Meg,41353030-2d32-44d6-9567-2e6b69636164,rev?*
G04 #@! TF.SameCoordinates,Original*
G04 #@! TF.FileFunction,Legend,Bot*
G04 #@! TF.FilePolarity,Positive*
%FSLAX46Y46*%
G04 Gerber Fmt 4.6, Leading zero omitted, Abs format (unit mm)*
G04 Created by KiCad (PCBNEW 5.99.0-1.20210607git4c293e0.fc34) date 2021-06-10 07:48:19*
%MOMM*%
%LPD*%
G01*
G04 APERTURE LIST*
%ADD10C,0.100000*%
%ADD11C,0.150000*%
%ADD12C,0.120000*%
G04 APERTURE END LIST*
D10*
X147045714Y-44408690D02*
X146950476Y-44408690D01*
X146902857Y-44432500D01*
X146855238Y-44480119D01*
X146831428Y-44575357D01*
X146831428Y-44742023D01*
X146855238Y-44837261D01*
X146902857Y-44884880D01*
X146950476Y-44908690D01*
X147045714Y-44908690D01*
X147093333Y-44884880D01*
X147140952Y-44837261D01*
X147164761Y-44742023D01*
X147164761Y-44575357D01*
X147140952Y-44480119D01*
X147093333Y-44432500D01*
X147045714Y-44408690D01*
X146617142Y-44575357D02*
X146617142Y-44908690D01*
X146617142Y-44622976D02*
X146593333Y-44599166D01*
X146545714Y-44575357D01*
X146474285Y-44575357D01*
X146426666Y-44599166D01*
X146402857Y-44646785D01*
X146402857Y-44908690D01*
X146093333Y-44908690D02*
X146140952Y-44884880D01*
X146164761Y-44837261D01*
X146164761Y-44408690D01*
X145950476Y-44575357D02*
X145831428Y-44908690D01*
X145712380Y-44575357D02*
X145831428Y-44908690D01*
X145879047Y-45027738D01*
X145902857Y-45051547D01*
X145950476Y-45075357D01*
X145140952Y-44575357D02*
X145140952Y-45075357D01*
X145140952Y-44599166D02*
X145093333Y-44575357D01*
X144998095Y-44575357D01*
X144950476Y-44599166D01*
X144926666Y-44622976D01*
X144902857Y-44670595D01*
X144902857Y-44813452D01*
X144926666Y-44861071D01*
X144950476Y-44884880D01*
X144998095Y-44908690D01*
X145093333Y-44908690D01*
X145140952Y-44884880D01*
X144617142Y-44908690D02*
X144664761Y-44884880D01*
X144688571Y-44861071D01*
X144712380Y-44813452D01*
X144712380Y-44670595D01*
X144688571Y-44622976D01*
X144664761Y-44599166D01*
X144617142Y-44575357D01*
X144545714Y-44575357D01*
X144498095Y-44599166D01*
X144474285Y-44622976D01*
X144450476Y-44670595D01*
X144450476Y-44813452D01*
X144474285Y-44861071D01*
X144498095Y-44884880D01*
X144545714Y-44908690D01*
X144617142Y-44908690D01*
X144236190Y-44575357D02*
X144236190Y-45075357D01*
X144236190Y-44599166D02*
X144188571Y-44575357D01*
X144093333Y-44575357D01*
X144045714Y-44599166D01*
X144021904Y-44622976D01*
X143998095Y-44670595D01*
X143998095Y-44813452D01*
X144021904Y-44861071D01*
X144045714Y-44884880D01*
X144093333Y-44908690D01*
X144188571Y-44908690D01*
X144236190Y-44884880D01*
X143569523Y-44575357D02*
X143569523Y-44908690D01*
X143783809Y-44575357D02*
X143783809Y-44837261D01*
X143760000Y-44884880D01*
X143712380Y-44908690D01*
X143640952Y-44908690D01*
X143593333Y-44884880D01*
X143569523Y-44861071D01*
X143260000Y-44908690D02*
X143307619Y-44884880D01*
X143331428Y-44837261D01*
X143331428Y-44408690D01*
X142855238Y-44908690D02*
X142855238Y-44646785D01*
X142879047Y-44599166D01*
X142926666Y-44575357D01*
X143021904Y-44575357D01*
X143069523Y-44599166D01*
X142855238Y-44884880D02*
X142902857Y-44908690D01*
X143021904Y-44908690D01*
X143069523Y-44884880D01*
X143093333Y-44837261D01*
X143093333Y-44789642D01*
X143069523Y-44742023D01*
X143021904Y-44718214D01*
X142902857Y-44718214D01*
X142855238Y-44694404D01*
X142688571Y-44575357D02*
X142498095Y-44575357D01*
X142617142Y-44408690D02*
X142617142Y-44837261D01*
X142593333Y-44884880D01*
X142545714Y-44908690D01*
X142498095Y-44908690D01*
X142140952Y-44884880D02*
X142188571Y-44908690D01*
X142283809Y-44908690D01*
X142331428Y-44884880D01*
X142355238Y-44837261D01*
X142355238Y-44646785D01*
X142331428Y-44599166D01*
X142283809Y-44575357D01*
X142188571Y-44575357D01*
X142140952Y-44599166D01*
X142117142Y-44646785D01*
X142117142Y-44694404D01*
X142355238Y-44742023D01*
X141236190Y-44861071D02*
X141260000Y-44884880D01*
X141331428Y-44908690D01*
X141379047Y-44908690D01*
X141450476Y-44884880D01*
X141498095Y-44837261D01*
X141521904Y-44789642D01*
X141545714Y-44694404D01*
X141545714Y-44622976D01*
X141521904Y-44527738D01*
X141498095Y-44480119D01*
X141450476Y-44432500D01*
X141379047Y-44408690D01*
X141331428Y-44408690D01*
X141260000Y-44432500D01*
X141236190Y-44456309D01*
X141045714Y-44456309D02*
X141021904Y-44432500D01*
X140974285Y-44408690D01*
X140855238Y-44408690D01*
X140807619Y-44432500D01*
X140783809Y-44456309D01*
X140760000Y-44503928D01*
X140760000Y-44551547D01*
X140783809Y-44622976D01*
X141069523Y-44908690D01*
X140760000Y-44908690D01*
X140164761Y-44908690D02*
X140164761Y-44575357D01*
X140164761Y-44408690D02*
X140188571Y-44432500D01*
X140164761Y-44456309D01*
X140140952Y-44432500D01*
X140164761Y-44408690D01*
X140164761Y-44456309D01*
X139998095Y-44575357D02*
X139807619Y-44575357D01*
X139926666Y-44908690D02*
X139926666Y-44480119D01*
X139902857Y-44432500D01*
X139855238Y-44408690D01*
X139807619Y-44408690D01*
X148152857Y-45380357D02*
X147962380Y-45380357D01*
X148081428Y-45213690D02*
X148081428Y-45642261D01*
X148057619Y-45689880D01*
X148010000Y-45713690D01*
X147962380Y-45713690D01*
X147795714Y-45713690D02*
X147795714Y-45213690D01*
X147581428Y-45713690D02*
X147581428Y-45451785D01*
X147605238Y-45404166D01*
X147652857Y-45380357D01*
X147724285Y-45380357D01*
X147771904Y-45404166D01*
X147795714Y-45427976D01*
X147152857Y-45689880D02*
X147200476Y-45713690D01*
X147295714Y-45713690D01*
X147343333Y-45689880D01*
X147367142Y-45642261D01*
X147367142Y-45451785D01*
X147343333Y-45404166D01*
X147295714Y-45380357D01*
X147200476Y-45380357D01*
X147152857Y-45404166D01*
X147129047Y-45451785D01*
X147129047Y-45499404D01*
X147367142Y-45547023D01*
X146462380Y-45427976D02*
X146510000Y-45404166D01*
X146533809Y-45380357D01*
X146557619Y-45332738D01*
X146557619Y-45308928D01*
X146533809Y-45261309D01*
X146510000Y-45237500D01*
X146462380Y-45213690D01*
X146367142Y-45213690D01*
X146319523Y-45237500D01*
X146295714Y-45261309D01*
X146271904Y-45308928D01*
X146271904Y-45332738D01*
X146295714Y-45380357D01*
X146319523Y-45404166D01*
X146367142Y-45427976D01*
X146462380Y-45427976D01*
X146510000Y-45451785D01*
X146533809Y-45475595D01*
X146557619Y-45523214D01*
X146557619Y-45618452D01*
X146533809Y-45666071D01*
X146510000Y-45689880D01*
X146462380Y-45713690D01*
X146367142Y-45713690D01*
X146319523Y-45689880D01*
X146295714Y-45666071D01*
X146271904Y-45618452D01*
X146271904Y-45523214D01*
X146295714Y-45475595D01*
X146319523Y-45451785D01*
X146367142Y-45427976D01*
X146105238Y-45213690D02*
X145795714Y-45213690D01*
X145962380Y-45404166D01*
X145890952Y-45404166D01*
X145843333Y-45427976D01*
X145819523Y-45451785D01*
X145795714Y-45499404D01*
X145795714Y-45618452D01*
X145819523Y-45666071D01*
X145843333Y-45689880D01*
X145890952Y-45713690D01*
X146033809Y-45713690D01*
X146081428Y-45689880D01*
X146105238Y-45666071D01*
X145629047Y-45213690D02*
X145295714Y-45213690D01*
X145510000Y-45713690D01*
X144867142Y-45213690D02*
X145105238Y-45213690D01*
X145129047Y-45451785D01*
X145105238Y-45427976D01*
X145057619Y-45404166D01*
X144938571Y-45404166D01*
X144890952Y-45427976D01*
X144867142Y-45451785D01*
X144843333Y-45499404D01*
X144843333Y-45618452D01*
X144867142Y-45666071D01*
X144890952Y-45689880D01*
X144938571Y-45713690D01*
X145057619Y-45713690D01*
X145105238Y-45689880D01*
X145129047Y-45666071D01*
X144248095Y-45713690D02*
X144248095Y-45380357D01*
X144248095Y-45213690D02*
X144271904Y-45237500D01*
X144248095Y-45261309D01*
X144224285Y-45237500D01*
X144248095Y-45213690D01*
X144248095Y-45261309D01*
X144033809Y-45689880D02*
X143986190Y-45713690D01*
X143890952Y-45713690D01*
X143843333Y-45689880D01*
X143819523Y-45642261D01*
X143819523Y-45618452D01*
X143843333Y-45570833D01*
X143890952Y-45547023D01*
X143962380Y-45547023D01*
X144010000Y-45523214D01*
X144033809Y-45475595D01*
X144033809Y-45451785D01*
X144010000Y-45404166D01*
X143962380Y-45380357D01*
X143890952Y-45380357D01*
X143843333Y-45404166D01*
X143224285Y-45713690D02*
X143224285Y-45380357D01*
X143224285Y-45427976D02*
X143200476Y-45404166D01*
X143152857Y-45380357D01*
X143081428Y-45380357D01*
X143033809Y-45404166D01*
X143010000Y-45451785D01*
X143010000Y-45713690D01*
X143010000Y-45451785D02*
X142986190Y-45404166D01*
X142938571Y-45380357D01*
X142867142Y-45380357D01*
X142819523Y-45404166D01*
X142795714Y-45451785D01*
X142795714Y-45713690D01*
X142343333Y-45713690D02*
X142343333Y-45451785D01*
X142367142Y-45404166D01*
X142414761Y-45380357D01*
X142510000Y-45380357D01*
X142557619Y-45404166D01*
X142343333Y-45689880D02*
X142390952Y-45713690D01*
X142510000Y-45713690D01*
X142557619Y-45689880D01*
X142581428Y-45642261D01*
X142581428Y-45594642D01*
X142557619Y-45547023D01*
X142510000Y-45523214D01*
X142390952Y-45523214D01*
X142343333Y-45499404D01*
X142105238Y-45713690D02*
X142105238Y-45380357D01*
X142105238Y-45475595D02*
X142081428Y-45427976D01*
X142057619Y-45404166D01*
X142010000Y-45380357D01*
X141962380Y-45380357D01*
X141795714Y-45713690D02*
X141795714Y-45213690D01*
X141748095Y-45523214D02*
X141605238Y-45713690D01*
X141605238Y-45380357D02*
X141795714Y-45570833D01*
X141200476Y-45689880D02*
X141248095Y-45713690D01*
X141343333Y-45713690D01*
X141390952Y-45689880D01*
X141414761Y-45642261D01*
X141414761Y-45451785D01*
X141390952Y-45404166D01*
X141343333Y-45380357D01*
X141248095Y-45380357D01*
X141200476Y-45404166D01*
X141176666Y-45451785D01*
X141176666Y-45499404D01*
X141414761Y-45547023D01*
X140748095Y-45713690D02*
X140748095Y-45213690D01*
X140748095Y-45689880D02*
X140795714Y-45713690D01*
X140890952Y-45713690D01*
X140938571Y-45689880D01*
X140962380Y-45666071D01*
X140986190Y-45618452D01*
X140986190Y-45475595D01*
X140962380Y-45427976D01*
X140938571Y-45404166D01*
X140890952Y-45380357D01*
X140795714Y-45380357D01*
X140748095Y-45404166D01*
X140200476Y-45213690D02*
X140033809Y-45713690D01*
X139867142Y-45213690D01*
X139533809Y-45451785D02*
X139462380Y-45475595D01*
X139438571Y-45499404D01*
X139414761Y-45547023D01*
X139414761Y-45618452D01*
X139438571Y-45666071D01*
X139462380Y-45689880D01*
X139510000Y-45713690D01*
X139700476Y-45713690D01*
X139700476Y-45213690D01*
X139533809Y-45213690D01*
X139486190Y-45237500D01*
X139462380Y-45261309D01*
X139438571Y-45308928D01*
X139438571Y-45356547D01*
X139462380Y-45404166D01*
X139486190Y-45427976D01*
X139533809Y-45451785D01*
X139700476Y-45451785D01*
X139033809Y-45451785D02*
X138962380Y-45475595D01*
X138938571Y-45499404D01*
X138914761Y-45547023D01*
X138914761Y-45618452D01*
X138938571Y-45666071D01*
X138962380Y-45689880D01*
X139010000Y-45713690D01*
X139200476Y-45713690D01*
X139200476Y-45213690D01*
X139033809Y-45213690D01*
X138986190Y-45237500D01*
X138962380Y-45261309D01*
X138938571Y-45308928D01*
X138938571Y-45356547D01*
X138962380Y-45404166D01*
X138986190Y-45427976D01*
X139033809Y-45451785D01*
X139200476Y-45451785D01*
X104735238Y-30563333D02*
X104497142Y-30563333D01*
X104782857Y-30706190D02*
X104616190Y-30206190D01*
X104449523Y-30706190D01*
X104306666Y-30253809D02*
X104282857Y-30230000D01*
X104235238Y-30206190D01*
X104116190Y-30206190D01*
X104068571Y-30230000D01*
X104044761Y-30253809D01*
X104020952Y-30301428D01*
X104020952Y-30349047D01*
X104044761Y-30420476D01*
X104330476Y-30706190D01*
X104020952Y-30706190D01*
X103711428Y-30206190D02*
X103663809Y-30206190D01*
X103616190Y-30230000D01*
X103592380Y-30253809D01*
X103568571Y-30301428D01*
X103544761Y-30396666D01*
X103544761Y-30515714D01*
X103568571Y-30610952D01*
X103592380Y-30658571D01*
X103616190Y-30682380D01*
X103663809Y-30706190D01*
X103711428Y-30706190D01*
X103759047Y-30682380D01*
X103782857Y-30658571D01*
X103806666Y-30610952D01*
X103830476Y-30515714D01*
X103830476Y-30396666D01*
X103806666Y-30301428D01*
X103782857Y-30253809D01*
X103759047Y-30230000D01*
X103711428Y-30206190D01*
X128301666Y-32238809D02*
X128277857Y-32215000D01*
X128230238Y-32191190D01*
X128111190Y-32191190D01*
X128063571Y-32215000D01*
X128039761Y-32238809D01*
X128015952Y-32286428D01*
X128015952Y-32334047D01*
X128039761Y-32405476D01*
X128325476Y-32691190D01*
X128015952Y-32691190D01*
X127730238Y-32405476D02*
X127777857Y-32381666D01*
X127801666Y-32357857D01*
X127825476Y-32310238D01*
X127825476Y-32286428D01*
X127801666Y-32238809D01*
X127777857Y-32215000D01*
X127730238Y-32191190D01*
X127635000Y-32191190D01*
X127587380Y-32215000D01*
X127563571Y-32238809D01*
X127539761Y-32286428D01*
X127539761Y-32310238D01*
X127563571Y-32357857D01*
X127587380Y-32381666D01*
X127635000Y-32405476D01*
X127730238Y-32405476D01*
X127777857Y-32429285D01*
X127801666Y-32453095D01*
X127825476Y-32500714D01*
X127825476Y-32595952D01*
X127801666Y-32643571D01*
X127777857Y-32667380D01*
X127730238Y-32691190D01*
X127635000Y-32691190D01*
X127587380Y-32667380D01*
X127563571Y-32643571D01*
X127539761Y-32595952D01*
X127539761Y-32500714D01*
X127563571Y-32453095D01*
X127587380Y-32429285D01*
X127635000Y-32405476D01*
X127325476Y-32691190D02*
X127325476Y-32191190D01*
X127158809Y-32548333D01*
X126992142Y-32191190D01*
X126992142Y-32691190D01*
X104743142Y-27666190D02*
X104409809Y-28166190D01*
X104409809Y-27666190D02*
X104743142Y-28166190D01*
X103933619Y-28118571D02*
X103957428Y-28142380D01*
X104028857Y-28166190D01*
X104076476Y-28166190D01*
X104147904Y-28142380D01*
X104195523Y-28094761D01*
X104219333Y-28047142D01*
X104243142Y-27951904D01*
X104243142Y-27880476D01*
X104219333Y-27785238D01*
X104195523Y-27737619D01*
X104147904Y-27690000D01*
X104076476Y-27666190D01*
X104028857Y-27666190D01*
X103957428Y-27690000D01*
X103933619Y-27713809D01*
X103481238Y-28166190D02*
X103719333Y-28166190D01*
X103719333Y-27666190D01*
X103362190Y-27666190D02*
X103028857Y-28166190D01*
X103028857Y-27666190D02*
X103362190Y-28166190D01*
X128301666Y-29991190D02*
X128301666Y-29491190D01*
X128135000Y-29848333D01*
X127968333Y-29491190D01*
X127968333Y-29991190D01*
X127730238Y-29491190D02*
X127730238Y-29895952D01*
X127706428Y-29943571D01*
X127682619Y-29967380D01*
X127635000Y-29991190D01*
X127539761Y-29991190D01*
X127492142Y-29967380D01*
X127468333Y-29943571D01*
X127444523Y-29895952D01*
X127444523Y-29491190D01*
X127254047Y-29491190D02*
X126920714Y-29991190D01*
X126920714Y-29491190D02*
X127254047Y-29991190D01*
D11*
G04 #@! TO.C,C6*
X179652142Y-64603333D02*
X179699761Y-64555714D01*
X179747380Y-64412857D01*
X179747380Y-64317619D01*
X179699761Y-64174761D01*
X179604523Y-64079523D01*
X179509285Y-64031904D01*
X179318809Y-63984285D01*
X179175952Y-63984285D01*
X178985476Y-64031904D01*
X178890238Y-64079523D01*
X178795000Y-64174761D01*
X178747380Y-64317619D01*
X178747380Y-64412857D01*
X178795000Y-64555714D01*
X178842619Y-64603333D01*
X178747380Y-65460476D02*
X178747380Y-65270000D01*
X178795000Y-65174761D01*
X178842619Y-65127142D01*
X178985476Y-65031904D01*
X179175952Y-64984285D01*
X179556904Y-64984285D01*
X179652142Y-65031904D01*
X179699761Y-65079523D01*
X179747380Y-65174761D01*
X179747380Y-65365238D01*
X179699761Y-65460476D01*
X179652142Y-65508095D01*
X179556904Y-65555714D01*
X179318809Y-65555714D01*
X179223571Y-65508095D01*
X179175952Y-65460476D01*
X179128333Y-65365238D01*
X179128333Y-65174761D01*
X179175952Y-65079523D01*
X179223571Y-65031904D01*
X179318809Y-64984285D01*
G04 #@! TO.C,C5*
X126531666Y-28707142D02*
X126579285Y-28754761D01*
X126722142Y-28802380D01*
X126817380Y-28802380D01*
X126960238Y-28754761D01*
X127055476Y-28659523D01*
X127103095Y-28564285D01*
X127150714Y-28373809D01*
X127150714Y-28230952D01*
X127103095Y-28040476D01*
X127055476Y-27945238D01*
X126960238Y-27850000D01*
X126817380Y-27802380D01*
X126722142Y-27802380D01*
X126579285Y-27850000D01*
X126531666Y-27897619D01*
X125626904Y-27802380D02*
X126103095Y-27802380D01*
X126150714Y-28278571D01*
X126103095Y-28230952D01*
X126007857Y-28183333D01*
X125769761Y-28183333D01*
X125674523Y-28230952D01*
X125626904Y-28278571D01*
X125579285Y-28373809D01*
X125579285Y-28611904D01*
X125626904Y-28707142D01*
X125674523Y-28754761D01*
X125769761Y-28802380D01*
X126007857Y-28802380D01*
X126103095Y-28754761D01*
X126150714Y-28707142D01*
G04 #@! TO.C,C1*
X134151666Y-74242142D02*
X134199285Y-74289761D01*
X134342142Y-74337380D01*
X134437380Y-74337380D01*
X134580238Y-74289761D01*
X134675476Y-74194523D01*
X134723095Y-74099285D01*
X134770714Y-73908809D01*
X134770714Y-73765952D01*
X134723095Y-73575476D01*
X134675476Y-73480238D01*
X134580238Y-73385000D01*
X134437380Y-73337380D01*
X134342142Y-73337380D01*
X134199285Y-73385000D01*
X134151666Y-73432619D01*
X133199285Y-74337380D02*
X133770714Y-74337380D01*
X133485000Y-74337380D02*
X133485000Y-73337380D01*
X133580238Y-73480238D01*
X133675476Y-73575476D01*
X133770714Y-73623095D01*
G04 #@! TO.C,JP2*
X130373333Y-27646380D02*
X130373333Y-28360666D01*
X130420952Y-28503523D01*
X130516190Y-28598761D01*
X130659047Y-28646380D01*
X130754285Y-28646380D01*
X129897142Y-28646380D02*
X129897142Y-27646380D01*
X129516190Y-27646380D01*
X129420952Y-27694000D01*
X129373333Y-27741619D01*
X129325714Y-27836857D01*
X129325714Y-27979714D01*
X129373333Y-28074952D01*
X129420952Y-28122571D01*
X129516190Y-28170190D01*
X129897142Y-28170190D01*
X128944761Y-27741619D02*
X128897142Y-27694000D01*
X128801904Y-27646380D01*
X128563809Y-27646380D01*
X128468571Y-27694000D01*
X128420952Y-27741619D01*
X128373333Y-27836857D01*
X128373333Y-27932095D01*
X128420952Y-28074952D01*
X128992380Y-28646380D01*
X128373333Y-28646380D01*
G04 #@! TO.C,U4*
X123462380Y-28448095D02*
X124271904Y-28448095D01*
X124367142Y-28495714D01*
X124414761Y-28543333D01*
X124462380Y-28638571D01*
X124462380Y-28829047D01*
X124414761Y-28924285D01*
X124367142Y-28971904D01*
X124271904Y-29019523D01*
X123462380Y-29019523D01*
X123795714Y-29924285D02*
X124462380Y-29924285D01*
X123414761Y-29686190D02*
X124129047Y-29448095D01*
X124129047Y-30067142D01*
G04 #@! TO.C,JP1*
X106878333Y-25614380D02*
X106878333Y-26328666D01*
X106925952Y-26471523D01*
X107021190Y-26566761D01*
X107164047Y-26614380D01*
X107259285Y-26614380D01*
X106402142Y-26614380D02*
X106402142Y-25614380D01*
X106021190Y-25614380D01*
X105925952Y-25662000D01*
X105878333Y-25709619D01*
X105830714Y-25804857D01*
X105830714Y-25947714D01*
X105878333Y-26042952D01*
X105925952Y-26090571D01*
X106021190Y-26138190D01*
X106402142Y-26138190D01*
X104878333Y-26614380D02*
X105449761Y-26614380D01*
X105164047Y-26614380D02*
X105164047Y-25614380D01*
X105259285Y-25757238D01*
X105354523Y-25852476D01*
X105449761Y-25900095D01*
G04 #@! TO.C,U5*
X175513904Y-32980380D02*
X175513904Y-33789904D01*
X175466285Y-33885142D01*
X175418666Y-33932761D01*
X175323428Y-33980380D01*
X175132952Y-33980380D01*
X175037714Y-33932761D01*
X174990095Y-33885142D01*
X174942476Y-33789904D01*
X174942476Y-32980380D01*
X173990095Y-32980380D02*
X174466285Y-32980380D01*
X174513904Y-33456571D01*
X174466285Y-33408952D01*
X174371047Y-33361333D01*
X174132952Y-33361333D01*
X174037714Y-33408952D01*
X173990095Y-33456571D01*
X173942476Y-33551809D01*
X173942476Y-33789904D01*
X173990095Y-33885142D01*
X174037714Y-33932761D01*
X174132952Y-33980380D01*
X174371047Y-33980380D01*
X174466285Y-33932761D01*
X174513904Y-33885142D01*
G04 #@! TO.C,C3*
X183872142Y-43648333D02*
X183919761Y-43600714D01*
X183967380Y-43457857D01*
X183967380Y-43362619D01*
X183919761Y-43219761D01*
X183824523Y-43124523D01*
X183729285Y-43076904D01*
X183538809Y-43029285D01*
X183395952Y-43029285D01*
X183205476Y-43076904D01*
X183110238Y-43124523D01*
X183015000Y-43219761D01*
X182967380Y-43362619D01*
X182967380Y-43457857D01*
X183015000Y-43600714D01*
X183062619Y-43648333D01*
X182967380Y-43981666D02*
X182967380Y-44600714D01*
X183348333Y-44267380D01*
X183348333Y-44410238D01*
X183395952Y-44505476D01*
X183443571Y-44553095D01*
X183538809Y-44600714D01*
X183776904Y-44600714D01*
X183872142Y-44553095D01*
X183919761Y-44505476D01*
X183967380Y-44410238D01*
X183967380Y-44124523D01*
X183919761Y-44029285D01*
X183872142Y-43981666D01*
G04 #@! TO.C,C7*
X136056666Y-25982142D02*
X136104285Y-26029761D01*
X136247142Y-26077380D01*
X136342380Y-26077380D01*
X136485238Y-26029761D01*
X136580476Y-25934523D01*
X136628095Y-25839285D01*
X136675714Y-25648809D01*
X136675714Y-25505952D01*
X136628095Y-25315476D01*
X136580476Y-25220238D01*
X136485238Y-25125000D01*
X136342380Y-25077380D01*
X136247142Y-25077380D01*
X136104285Y-25125000D01*
X136056666Y-25172619D01*
X135723333Y-25077380D02*
X135056666Y-25077380D01*
X135485238Y-26077380D01*
G04 #@! TO.C,R1*
X136056666Y-33217380D02*
X136390000Y-32741190D01*
X136628095Y-33217380D02*
X136628095Y-32217380D01*
X136247142Y-32217380D01*
X136151904Y-32265000D01*
X136104285Y-32312619D01*
X136056666Y-32407857D01*
X136056666Y-32550714D01*
X136104285Y-32645952D01*
X136151904Y-32693571D01*
X136247142Y-32741190D01*
X136628095Y-32741190D01*
X135104285Y-33217380D02*
X135675714Y-33217380D01*
X135390000Y-33217380D02*
X135390000Y-32217380D01*
X135485238Y-32360238D01*
X135580476Y-32455476D01*
X135675714Y-32503095D01*
G04 #@! TO.C,U3*
X136104380Y-73406095D02*
X136913904Y-73406095D01*
X137009142Y-73453714D01*
X137056761Y-73501333D01*
X137104380Y-73596571D01*
X137104380Y-73787047D01*
X137056761Y-73882285D01*
X137009142Y-73929904D01*
X136913904Y-73977523D01*
X136104380Y-73977523D01*
X136104380Y-74358476D02*
X136104380Y-74977523D01*
X136485333Y-74644190D01*
X136485333Y-74787047D01*
X136532952Y-74882285D01*
X136580571Y-74929904D01*
X136675809Y-74977523D01*
X136913904Y-74977523D01*
X137009142Y-74929904D01*
X137056761Y-74882285D01*
X137104380Y-74787047D01*
X137104380Y-74501333D01*
X137056761Y-74406095D01*
X137009142Y-74358476D01*
G04 #@! TO.C,C2*
X141771666Y-48773142D02*
X141819285Y-48820761D01*
X141962142Y-48868380D01*
X142057380Y-48868380D01*
X142200238Y-48820761D01*
X142295476Y-48725523D01*
X142343095Y-48630285D01*
X142390714Y-48439809D01*
X142390714Y-48296952D01*
X142343095Y-48106476D01*
X142295476Y-48011238D01*
X142200238Y-47916000D01*
X142057380Y-47868380D01*
X141962142Y-47868380D01*
X141819285Y-47916000D01*
X141771666Y-47963619D01*
X141390714Y-47963619D02*
X141343095Y-47916000D01*
X141247857Y-47868380D01*
X141009761Y-47868380D01*
X140914523Y-47916000D01*
X140866904Y-47963619D01*
X140819285Y-48058857D01*
X140819285Y-48154095D01*
X140866904Y-48296952D01*
X141438333Y-48868380D01*
X140819285Y-48868380D01*
G04 #@! TO.C,C4*
X178601666Y-31697142D02*
X178649285Y-31744761D01*
X178792142Y-31792380D01*
X178887380Y-31792380D01*
X179030238Y-31744761D01*
X179125476Y-31649523D01*
X179173095Y-31554285D01*
X179220714Y-31363809D01*
X179220714Y-31220952D01*
X179173095Y-31030476D01*
X179125476Y-30935238D01*
X179030238Y-30840000D01*
X178887380Y-30792380D01*
X178792142Y-30792380D01*
X178649285Y-30840000D01*
X178601666Y-30887619D01*
X177744523Y-31125714D02*
X177744523Y-31792380D01*
X177982619Y-30744761D02*
X178220714Y-31459047D01*
X177601666Y-31459047D01*
D12*
G04 #@! TO.C,U1*
X129124000Y-33945000D02*
X93904000Y-33945000D01*
X130124000Y-70195000D02*
X130124000Y-53070000D01*
X93904000Y-70195000D02*
X130124000Y-70195000D01*
X93904000Y-33945000D02*
X93904000Y-70195000D01*
X130124000Y-51070000D02*
X130124000Y-34945000D01*
X130124000Y-34945000D02*
X129124000Y-33945000D01*
G04 #@! TO.C,C6*
X180240000Y-64508748D02*
X180240000Y-65031252D01*
X181710000Y-64508748D02*
X181710000Y-65031252D01*
G04 #@! TO.C,C5*
X126103748Y-25935000D02*
X126626252Y-25935000D01*
X126103748Y-27405000D02*
X126626252Y-27405000D01*
G04 #@! TO.C,C1*
X134246252Y-74830000D02*
X133723748Y-74830000D01*
X134246252Y-76300000D02*
X133723748Y-76300000D01*
G04 #@! TO.C,JP2*
X128540000Y-29715000D02*
X128540000Y-32515000D01*
X130540000Y-32515000D02*
X130540000Y-29715000D01*
X129840000Y-29065000D02*
X129240000Y-29065000D01*
X130740000Y-29915000D02*
X131040000Y-30215000D01*
X130740000Y-29915000D02*
X131040000Y-29615000D01*
X129240000Y-33165000D02*
X129840000Y-33165000D01*
X131040000Y-29615000D02*
X131040000Y-30215000D01*
X130540000Y-29765000D02*
G75*
G03*
X129840000Y-29065000I-700000J0D01*
G01*
X128540000Y-32465000D02*
G75*
G03*
X129240000Y-33165000I700000J0D01*
G01*
X129840000Y-33165000D02*
G75*
G03*
X130540000Y-32465000I0J700000D01*
G01*
X129240000Y-29065000D02*
G75*
G03*
X128540000Y-29765000I0J-700000D01*
G01*
G04 #@! TO.C,U4*
X113050000Y-29210000D02*
X113050000Y-27260000D01*
X113050000Y-29210000D02*
X113050000Y-31160000D01*
X123170000Y-29210000D02*
X123170000Y-32660000D01*
X123170000Y-29210000D02*
X123170000Y-27260000D01*
G04 #@! TO.C,JP1*
X105745000Y-31260000D02*
X106345000Y-31260000D01*
X106345000Y-27160000D02*
X105745000Y-27160000D01*
X105045000Y-27810000D02*
X105045000Y-30610000D01*
X107245000Y-28010000D02*
X107545000Y-28310000D01*
X107545000Y-27710000D02*
X107545000Y-28310000D01*
X107245000Y-28010000D02*
X107545000Y-27710000D01*
X107045000Y-30610000D02*
X107045000Y-27810000D01*
X106345000Y-31260000D02*
G75*
G03*
X107045000Y-30560000I0J700000D01*
G01*
X105045000Y-30560000D02*
G75*
G03*
X105745000Y-31260000I700000J0D01*
G01*
X105745000Y-27160000D02*
G75*
G03*
X105045000Y-27860000I0J-700000D01*
G01*
X107045000Y-27860000D02*
G75*
G03*
X106345000Y-27160000I-700000J0D01*
G01*
D11*
G04 #@! TO.C,U5*
X179705000Y-61976000D02*
X172085000Y-61976000D01*
X179705000Y-61976000D02*
X179705000Y-34544000D01*
X172085000Y-34544000D02*
X172085000Y-61976000D01*
X179705000Y-34544000D02*
X172085000Y-34544000D01*
X179197000Y-36068000D02*
G75*
G03*
X179197000Y-36068000I-1270000J0D01*
G01*
D12*
G04 #@! TO.C,C3*
X184250000Y-40901252D02*
X184250000Y-40378748D01*
X182780000Y-40901252D02*
X182780000Y-40378748D01*
G04 #@! TO.C,C7*
X136151252Y-26570000D02*
X135628748Y-26570000D01*
X136151252Y-28040000D02*
X135628748Y-28040000D01*
G04 #@! TO.C,R1*
X135662936Y-31850000D02*
X136117064Y-31850000D01*
X135662936Y-30380000D02*
X136117064Y-30380000D01*
G04 #@! TO.C,U3*
X137455000Y-75195000D02*
X137455000Y-72745000D01*
X140675000Y-73395000D02*
X140675000Y-75195000D01*
G04 #@! TO.C,C2*
X141343748Y-47471000D02*
X141866252Y-47471000D01*
X141343748Y-46001000D02*
X141866252Y-46001000D01*
G04 #@! TO.C,C4*
X178696252Y-33755000D02*
X178173748Y-33755000D01*
X178696252Y-32285000D02*
X178173748Y-32285000D01*
G04 #@! TD*
M02*
