G04 #@! TF.GenerationSoftware,KiCad,Pcbnew,5.99.0-1.20210607git4c293e0.fc34*
G04 #@! TF.CreationDate,2021-06-11T06:43:40+01:00*
G04 #@! TF.ProjectId,A500-2Meg,41353030-2d32-44d6-9567-2e6b69636164,rev?*
G04 #@! TF.SameCoordinates,Original*
G04 #@! TF.FileFunction,Paste,Bot*
G04 #@! TF.FilePolarity,Positive*
%FSLAX46Y46*%
G04 Gerber Fmt 4.6, Leading zero omitted, Abs format (unit mm)*
G04 Created by KiCad (PCBNEW 5.99.0-1.20210607git4c293e0.fc34) date 2021-06-11 06:43:40*
%MOMM*%
%LPD*%
G01*
G04 APERTURE LIST*
G04 Aperture macros list*
%AMRoundRect*
0 Rectangle with rounded corners*
0 $1 Rounding radius*
0 $2 $3 $4 $5 $6 $7 $8 $9 X,Y pos of 4 corners*
0 Add a 4 corners polygon primitive as box body*
4,1,4,$2,$3,$4,$5,$6,$7,$8,$9,$2,$3,0*
0 Add four circle primitives for the rounded corners*
1,1,$1+$1,$2,$3*
1,1,$1+$1,$4,$5*
1,1,$1+$1,$6,$7*
1,1,$1+$1,$8,$9*
0 Add four rect primitives between the rounded corners*
20,1,$1+$1,$2,$3,$4,$5,0*
20,1,$1+$1,$4,$5,$6,$7,0*
20,1,$1+$1,$6,$7,$8,$9,0*
20,1,$1+$1,$8,$9,$2,$3,0*%
G04 Aperture macros list end*
%ADD10RoundRect,0.250000X-0.475000X0.337500X-0.475000X-0.337500X0.475000X-0.337500X0.475000X0.337500X0*%
%ADD11RoundRect,0.250000X-0.337500X-0.475000X0.337500X-0.475000X0.337500X0.475000X-0.337500X0.475000X0*%
%ADD12RoundRect,0.250000X0.337500X0.475000X-0.337500X0.475000X-0.337500X-0.475000X0.337500X-0.475000X0*%
%ADD13RoundRect,0.150000X0.150000X-0.825000X0.150000X0.825000X-0.150000X0.825000X-0.150000X-0.825000X0*%
%ADD14R,2.032000X0.508000*%
%ADD15RoundRect,0.250000X0.475000X-0.337500X0.475000X0.337500X-0.475000X0.337500X-0.475000X-0.337500X0*%
%ADD16RoundRect,0.250000X-0.350000X-0.450000X0.350000X-0.450000X0.350000X0.450000X-0.350000X0.450000X0*%
%ADD17R,0.650000X1.560000*%
G04 APERTURE END LIST*
D10*
X180975000Y-63732500D03*
X180975000Y-65807500D03*
D11*
X125327500Y-26670000D03*
X127402500Y-26670000D03*
D12*
X135022500Y-75565000D03*
X132947500Y-75565000D03*
D13*
X122555000Y-31685000D03*
X121285000Y-31685000D03*
X120015000Y-31685000D03*
X118745000Y-31685000D03*
X117475000Y-31685000D03*
X116205000Y-31685000D03*
X114935000Y-31685000D03*
X113665000Y-31685000D03*
X113665000Y-26735000D03*
X114935000Y-26735000D03*
X116205000Y-26735000D03*
X117475000Y-26735000D03*
X118745000Y-26735000D03*
X120015000Y-26735000D03*
X121285000Y-26735000D03*
X122555000Y-26735000D03*
D14*
X180975000Y-35560000D03*
X180975000Y-36830000D03*
X180975000Y-38100000D03*
X180975000Y-39370000D03*
X180975000Y-40640000D03*
X180975000Y-41910000D03*
X180975000Y-43180000D03*
X180975000Y-44450000D03*
X180975000Y-45720000D03*
X180975000Y-46990000D03*
X180975000Y-48260000D03*
X180975000Y-49530000D03*
X180975000Y-50800000D03*
X180975000Y-52070000D03*
X180975000Y-53340000D03*
X180975000Y-54610000D03*
X180975000Y-55880000D03*
X180975000Y-57150000D03*
X180975000Y-58420000D03*
X180975000Y-59690000D03*
X180975000Y-60960000D03*
X170815000Y-60960000D03*
X170815000Y-59690000D03*
X170815000Y-58420000D03*
X170815000Y-57150000D03*
X170815000Y-55880000D03*
X170815000Y-54610000D03*
X170815000Y-53340000D03*
X170815000Y-52070000D03*
X170815000Y-50800000D03*
X170815000Y-49530000D03*
X170815000Y-48260000D03*
X170815000Y-46990000D03*
X170815000Y-45720000D03*
X170815000Y-44450000D03*
X170815000Y-43180000D03*
X170815000Y-41910000D03*
X170815000Y-40640000D03*
X170815000Y-39370000D03*
X170815000Y-38100000D03*
X170815000Y-36830000D03*
X170815000Y-35560000D03*
D15*
X183515000Y-41677500D03*
X183515000Y-39602500D03*
D12*
X136927500Y-27305000D03*
X134852500Y-27305000D03*
D16*
X134890000Y-31115000D03*
X136890000Y-31115000D03*
D17*
X138115000Y-72945000D03*
X139065000Y-72945000D03*
X140015000Y-72945000D03*
X140015000Y-75645000D03*
X138115000Y-75645000D03*
D11*
X140567500Y-46736000D03*
X142642500Y-46736000D03*
D12*
X179472500Y-33020000D03*
X177397500Y-33020000D03*
M02*
