M48
INCH,TZ
T1C0.0157
T2C0.0315
T3C0.0315
T4C0.0394
%
G90
G05
T1
X37250Y-19000
X40000Y-16500
X40000Y-17500
X40000Y-18500
X40000Y-19500
X40000Y-20500
X40000Y-21500
X40000Y-22500
X40000Y-23500
X40000Y-24500
X40250Y-13250
X41000Y-12500
X42723Y-12473
X47750Y-16500
X47750Y-17500
X47750Y-18500
X47750Y-19500
X47750Y-20500
X47750Y-21500
X47750Y-22500
X47750Y-23500
X47750Y-24500
X48250Y-16250
X50750Y-15500
X50750Y-16500
X50750Y-17500
X50750Y-18500
X50750Y-19500
X50750Y-20500
X50750Y-21500
X50750Y-22500
X50750Y-23500
X50750Y-24500
X50750Y-25500
X50750Y-26500
X52250Y-15500
X52250Y-16500
X52250Y-17500
X52250Y-18500
X52250Y-19500
X52250Y-20500
X52250Y-21500
X52250Y-22500
X52250Y-23500
X52250Y-24500
X52250Y-25500
X52250Y-26500
X52750Y-14500
X54750Y-16500
X54750Y-17500
X54750Y-19500
X54750Y-20500
X54750Y-21500
X54750Y-22500
X54750Y-23500
X54750Y-24500
X55000Y-10000
X55500Y-10215
X56000Y-10500
X56250Y-31000
X56500Y-10715
X57000Y-11000
X57000Y-30500
X57500Y-11215
X57500Y-30285
X58000Y-11500
X58000Y-30000
X58500Y-11715
X58500Y-29785
X59000Y-12000
X59000Y-29500
X59500Y-29285
X60000Y-12500
X60000Y-29000
X60250Y-30500
X60500Y-13785
X60500Y-28785
X61000Y-13000
X61000Y-28500
X61250Y-29500
X61500Y-28285
X61750Y-22500
X62000Y-13500
X62000Y-28000
X62500Y-27215
X62750Y-20500
X62750Y-21500
X63000Y-16500
X63000Y-17500
X63000Y-18500
X63000Y-19500
X63000Y-23500
X63000Y-24500
X63000Y-27500
X63500Y-13500
X66035Y-21000
X66035Y-21500
X66035Y-22000
X66035Y-22500
X66035Y-23000
X66035Y-23500
X66250Y-24639
X68000Y-24750
X68250Y-13000
X68250Y-19500
X68250Y-22750
X68750Y-15000
X69000Y-19500
X69500Y-25750
X70000Y-14500
X70000Y-15000
X70000Y-15500
X70000Y-16000
X70000Y-17000
X70000Y-17500
X70000Y-18000
X70000Y-18500
X70000Y-22000
X70000Y-22500
X70000Y-23000
X70000Y-23500
X70500Y-20000
X72250Y-14750
T2
X43500Y-10250
X57250Y-18350
X62750Y-22535
T3
X38100Y-15500
X38100Y-16500
X38100Y-17500
X38100Y-18500
X38100Y-19500
X38100Y-20500
X38100Y-21500
X38100Y-22500
X38100Y-23500
X38100Y-24500
X38100Y-25500
X39100Y-14500
X39100Y-15500
X39100Y-16500
X39100Y-17500
X39100Y-18500
X39100Y-19500
X39100Y-20500
X39100Y-21500
X39100Y-22500
X39100Y-23500
X39100Y-24500
X39100Y-25500
X39100Y-26500
X40100Y-14500
X40100Y-15500
X40100Y-25500
X40100Y-26500
X41100Y-14500
X41100Y-15500
X41100Y-25500
X41100Y-26500
X42100Y-14500
X42100Y-15500
X42100Y-25500
X42100Y-26500
X43100Y-14500
X43100Y-15500
X43100Y-25500
X43100Y-26500
X44100Y-14500
X44100Y-15500
X44100Y-25500
X44100Y-26500
X45100Y-14500
X45100Y-15500
X45100Y-25500
X45100Y-26500
X46100Y-14500
X46100Y-15500
X46100Y-25500
X46100Y-26500
X47100Y-14500
X47100Y-15500
X47100Y-25500
X47100Y-26500
X48100Y-14500
X48100Y-15500
X48100Y-25500
X48100Y-26500
X49100Y-14500
X49100Y-15500
X49100Y-16500
X49100Y-17500
X49100Y-18500
X49100Y-19500
X49100Y-20500
X49100Y-21500
X49100Y-22500
X49100Y-23500
X49100Y-24500
X49100Y-25500
X49100Y-26500
X50100Y-15500
X50100Y-16500
X50100Y-17500
X50100Y-18500
X50100Y-19500
X50100Y-20500
X50100Y-21500
X50100Y-22500
X50100Y-23500
X50100Y-24500
X50100Y-25500
X53000Y-15500
X53000Y-16500
X53000Y-17500
X53000Y-18500
X53000Y-19500
X53000Y-20500
X53000Y-21500
X53000Y-22500
X53000Y-23500
X53000Y-24500
X53000Y-25500
X54000Y-14500
X54000Y-15500
X54000Y-16500
X54000Y-17500
X54000Y-18500
X54000Y-19500
X54000Y-20500
X54000Y-21500
X54000Y-22500
X54000Y-23500
X54000Y-24500
X54000Y-25500
X54000Y-26500
X55000Y-14500
X55000Y-15500
X55000Y-25500
X55000Y-26500
X56000Y-14500
X56000Y-15500
X56000Y-25500
X56000Y-26500
X57000Y-14500
X57000Y-15500
X57000Y-25500
X57000Y-26500
X58000Y-14500
X58000Y-15500
X58000Y-25500
X58000Y-26500
X59000Y-14500
X59000Y-15500
X59000Y-25500
X59000Y-26500
X60000Y-14500
X60000Y-15500
X60000Y-25500
X60000Y-26500
X61000Y-14500
X61000Y-15500
X61000Y-25500
X61000Y-26500
X62000Y-14500
X62000Y-15500
X62000Y-25500
X62000Y-26500
X63000Y-14500
X63000Y-15500
X63000Y-25500
X63000Y-26500
X64000Y-14500
X64000Y-15500
X64000Y-16500
X64000Y-17500
X64000Y-18500
X64000Y-19500
X64000Y-20500
X64000Y-21500
X64000Y-22500
X64000Y-23500
X64000Y-24500
X64000Y-25500
X64000Y-26500
X65000Y-15500
X65000Y-16500
X65000Y-17500
X65000Y-18500
X65000Y-19500
X65000Y-20500
X65000Y-21500
X65000Y-22500
X65000Y-23500
X65000Y-24500
X65000Y-25500
T4
X61250Y-11250
T0
M30
